<svg width="181" height="503" viewBox="0 0 181 503" fill="none" xmlns="http://www.w3.org/2000/svg">
<path d="M39 144H1.07019C0.227306 154 6.63323 174.4 39 176M180 442H174.5M180 442V253M180 442H166M180 442V464.5V487M180 487H174.5M180 487H164V502H180V487ZM166 442L165 487H174.5M166 442H174.5M166 442V253H180M174.5 442V487M38 5H47V1H38V5ZM38 5H42V129M38 5V129H42M42 129H31V144H42V129ZM42 129H108M42 129V138H108M108 129V138M108 129H158M108 138H158M40 212H2.07019C1.22731 202 7.63323 181.6 40 180M158 129V138M158 129H165V138H158M56 233V195.07C66 194.227 86.4 200.633 88 233M56 233V222H42V233H56ZM112 233V222H87V233H112ZM112 233H103V254H112V233ZM180 253V243H112V253H180ZM68 316H46V337.5M68 316H90V330.5M68 316V437M68 316L61 320.5M68 316L75 320.5M68 437H90V430M68 437H46V430M46.5 324H89.5M46.5 330.5H90M90 330.5V350M46 337.5H89.5M46 337.5V350M46.5 343.5H89.5M46 350H90M46 350V356.5M90 350V356.5M46 356.5H90M46 356.5V363M90 356.5V363M46 363H90M46 363V370M90 363V370M46 370H90M46 370V376.5M90 370V376.5M46 376.5H90M46 376.5V383.5M90 376.5V383.5M46 383.5H90M46 383.5V390M90 383.5V390M46 390H90M46 390V396M90 390V396M46 396H90M46 396V403M90 396V403M46 403H90M46 403V410M90 403V410M46 410H90M46 410V416.5M90 410V416.5M46 416.5H90M46 416.5V423M90 416.5V423M46 423H90M46 423V430M90 423V430M46 430H90M135 439H157V417.5M135 439H113V424.5M135 439L135 318M135 439L142 434.5M135 439L128 434.5M135 318H113V325M135 318H157V325M156.5 431H113.5M156.5 424.5H113M113 424.5V405M157 417.5H113.5M157 417.5V405M156.5 411.5H113.5M157 405H113M157 405V398.5M113 405V398.5M157 398.5H113M157 398.5V392M113 398.5L113 392M157 392H113M157 392V385M113 392V385M157 385H113M157 385V378.5M113 385V378.5M157 378.5H113M157 378.5V371.5M113 378.5V371.5M157 371.5H113M157 371.5V365M113 371.5V365M157 365H113M157 365V359M113 365V359M157 359H113M157 359V352M113 359V352M157 352H113M157 352L157 345M113 352V345M157 345H113M157 345V338.5M113 345V338.5M157 338.5H113M157 338.5V332M113 338.5V332M157 332H113M157 332V325M113 332V325M157 325H113M91 13H156V117H91V13ZM94 19H154V111H94V19ZM76 10H85V129H76V10ZM33 175H40V181H33V175ZM32 212H42V501H32V212Z" stroke="#696969" stroke-width="2" stroke-linecap="round"/>
</svg>
